<svg xmlns="http://www.w3.org/2000/svg">
 <!-- Created with Method Draw - http://github.com/duopixel/Method-Draw/ -->
 <g>
  <title>background</title>
  <rect fill="#ffffff" id="canvas_background" height="402" width="582" y="-1" x="-1"/>
  <g display="none" overflow="visible" y="0" x="0" height="100%" width="100%" id="canvasGrid">
   <rect fill="url(#gridpattern)" stroke-width="0" y="0" x="0" height="100%" width="100%"/>
  </g>
 </g>
 <g>
  <title>Layer 1</title>
  <text stroke="#000" transform="matrix(2.069416794211145,0,0,4.735443420394742,-109.54883929592413,-522.4836814612017) " xml:space="preserve" text-anchor="start" font-family="'Courier New', Courier, monospace" font-size="24" id="svg_1" y="159.103125" x="83.518766" stroke-width="0" fill="#000000">FLOOD WATCH</text>
  <path id="svg_11" fill-opacity="null" stroke-opacity="null" stroke-width="0" stroke="#000" fill="#000000"/>
  <g stroke="null" id="svg_26">
   <path stroke="#FFE7A2" id="svg_16" d="m450.678572,147.061218l-58.678573,116.693088l124.000002,0l-65.32143,-116.693088z" stroke-width="null" fill="#ff7f00"/>
   <path stroke="#FFE7A2" id="svg_17" d="m452.080781,156.727128l-49.452211,101.008897l99.35604,0l-49.903829,-101.008897z" stroke-width="null" fill="#ffffff"/>
   <path stroke="#FFE7A2" d="m401.764655,257.681198c0,0 0,0 0,0c0,-0.570496 0,-0.570496 0,-0.570496c0,-0.570496 0.457393,-1.140991 0.457393,-1.140991c0.457393,-0.570496 0.667246,-0.395611 0.914786,-1.140991c0.17504,-0.527075 0,-0.570496 0,-0.570496c0,-0.570496 0.457393,-0.570496 0.457393,-0.570496c0.457393,-0.570496 0.457393,-0.570496 0.457393,-0.570496c0,-0.570496 0.133967,-0.737598 0.457393,-1.140991c0.323426,-0.403393 0.457393,0 0.457393,-0.570496c0,0 0.457393,0 0.457393,0c0,0 0,-0.570496 0.457393,-0.570496c0,0 0,0 0,-0.570496c0,0 0.457393,0 0.457393,0c0,0 0,-0.570496 0,-0.570496c0,0 0.457393,-0.570496 0.457393,-0.570496c0,0 0.457393,-0.570496 0.457393,-0.570496c0,-0.570496 0.457393,-0.570496 0.457393,-0.570496c0,-0.570496 0,-0.570496 0,-0.570496c0.457393,-0.570496 0.457393,-0.570496 0.457393,-0.570496c0,0 0,-0.570496 0,-0.570496c0.457393,0 0.457393,-0.570496 0.457393,-0.570496c0,0 0,0 0,-0.570496c0,0 0.457393,0 0.457393,0c0,0 0,0 0.457393,-0.570496c0,0 0,0 0,0c0,0 -0.323426,-0.167103 0,-0.570496c0.323426,-0.403393 0.457393,0 0.457393,0c0.457393,0 0.457393,0 0.914786,0c0,0 0.457393,0 1.372179,0c0.914786,0 1.829572,0.570496 2.744358,1.140991c0.914786,0.570496 1.914649,0.395088 2.744358,1.140991c0.524757,0.471745 0.914786,0.570496 0.914786,0.570496c0.457393,0 0.457393,0 0.457393,0c0.457393,0 0.457393,-0.570496 0.914786,-1.140991c0.914786,-1.140991 1.372179,-1.711487 1.829572,-2.281982c0.457393,-0.570496 0.914786,-1.140991 0.914786,-1.140991c0.457393,-0.570496 0.591367,-0.737598 0.914786,-1.140991c0.323419,-0.403393 0.457393,-1.140991 0.914786,-1.140991c0,0 0.457393,0 0.457393,0c0,0 0.209853,-0.174885 0.457393,0.570496c0.17504,0.527075 0.191581,1.379945 0.914786,2.281982c0.723205,0.902037 2.372042,1.53608 3.201751,2.281982c0.524757,0.471745 0.774573,0.83224 1.372179,1.140991c0.42258,0.218323 0.457393,0 0.914786,0c0,0 0.457393,-0.570496 0.457393,-0.570496c0.457393,-0.570496 0.847422,-0.669246 1.372179,-1.140991c0.829709,-0.745903 1.106367,-1.379945 1.829572,-2.281982c0.723205,-0.902037 0.999863,-0.395088 1.829572,-1.140991c0.524757,-0.471745 0.31718,-0.83224 0.914786,-1.140991c0.42258,-0.218323 0.457393,0 0.914786,0c0.457393,0 0.821934,0.146332 1.372179,0.570496c1.230388,0.948452 2.999674,2.007738 4.57393,3.422974c0.829709,0.745903 2.286965,1.711487 2.744358,2.281982c0.457393,0.570496 0.914786,1.140991 0.914786,1.140991c0,0 0.457393,0 0.457393,0c0,0 0,0 0.457393,0c0.457393,0 0.31718,-0.261744 0.914786,-0.570496c0.42258,-0.218323 1.304815,-0.669246 1.829572,-1.140991c0.829709,-0.745903 1.372179,-0.570496 1.829572,-1.140991c0.457393,-0.570496 0.774573,-1.402735 1.372179,-1.711487c0.42258,-0.218323 0.457393,0 0.914786,-0.570496c0,0 0.457393,0 0.457393,0c0.457393,0 0.457393,0 0.914786,0c0,0 0.492206,-0.218323 0.914786,0c1.195227,0.617503 1.304815,1.810237 1.829572,2.281982c0.829709,0.745903 1.231966,1.402735 1.829572,1.711487c0.42258,0.218323 0.914786,0.570496 0.914786,0.570496c0.457393,0 0.914786,0 0.914786,0c0.457393,0 0.914786,0 0.914786,0c0,0 0.457393,0 0.457393,0c0.457393,-0.570496 0.949599,-0.352172 1.372179,-0.570496c0.597606,-0.308751 0.914786,-0.570496 1.372179,-1.140991c0,0 0.133974,-0.167103 0.457393,-0.570496c0.646852,-0.806803 1.372179,-0.570496 1.829572,-0.570496c0.457393,0 0.914786,0 1.372179,0c0.914786,0 1.383988,-0.182772 2.286965,0c1.42772,0.288974 1.549131,1.664479 2.744358,2.281982c0.845147,0.436646 1.372179,0 1.372179,0c0.457393,0 0.457393,0 0.914786,0c0.457393,0 0.457393,0 0.457393,0c0.457393,0 0.914786,-0.570496 1.372179,-0.570496c0.457393,0 0.927028,-0.439415 1.372179,-0.570496c0.995397,-0.293082 1.372179,-0.570496 2.286965,-0.570496c0.457393,0 1.396648,-0.262145 2.286965,0c0.995397,0.293082 2.101261,1.433656 3.201751,2.281982c1.230388,0.948452 2.356604,0.704345 3.201751,1.140991c0.597606,0.308751 0.914786,0.570496 0.914786,0.570496c0,0 0.457393,0 0.457393,0c0.457393,0 0.457393,0 0.457393,0c0,0 0.457393,0 0.457393,0c0.457393,0 0.457393,0 0.914786,0c0.457393,0 0.914786,0 0.914786,0c0.457393,0 0.914786,0 0.914786,0c0.457393,0 0.457393,0.570496 0.457393,0.570496c0,0 0,0 0,0.570496c0,0 0,0 0,0.570496c0,0 0,0 0,0.570496c0,0 0.457393,0.570496 0.457393,1.140991c0,0 0.457393,0.570496 0.457393,0.570496c0,0.570496 0.457393,0.570496 0.457393,0.570496c0,0.570496 0.457393,0.570496 0.457393,0.570496c0,0.570496 0,0.570496 0.457393,0.570496c0,0 -0.323419,0.167103 0,0.570496c0.323419,0.403393 0.457393,0 0.457393,0c0,0 0,0 0,0c0,0.570496 0,0.570496 0.457393,0.570496c0,0 0,0.570496 0,0.570496c0,0 0,0 0,0c0,0.570496 0.457393,0.570496 0.457393,0.570496c0,0 0,0 0,0.570496c0,0 0,0 0,0l0,0.570496l0,0" id="svg_19" stroke-width="null" fill="#007fff"/>
   <path stroke="#FFE7A2" id="svg_20" d="m432.786836,241.314181l39.15232,-1.087461l-0.636623,-31.431137l-15.915577,-23.199173l-23.555054,20.954091l0.954935,34.763679z" stroke-opacity="null" stroke-width="null" fill="#000000"/>
   <path stroke="#000000" id="svg_21" d="m442.264286,197.835323l-0.664286,-15.091391l3.985714,1.140991l-0.442857,11.409912l4.871429,6.845947l-7.75,-4.305459z" stroke-width="null" fill="#000000"/>
   <path stroke="#000000" id="svg_22" d="m439.164286,200.687801l-6.421429,8.298928l5.757143,-1.711487l0.664286,-6.587441z" fill-opacity="null" stroke-width="null" fill="#000000"/>
   <path stroke="#000000" id="svg_23" d="m463.521429,200.687801l7.75,11.721902l-5.757143,-1.711487l-1.992857,-10.010415z" stroke-width="null" fill="#000000"/>
   <rect stroke="#ffffff" id="svg_24" height="9.12793" width="4.871429" y="209.245235" x="454.664286" stroke-width="null" fill="#ffffff"/>
  </g>
 </g>
</svg>